<svg width="267" height="164" fill="none" xmlns="http://www.w3.org/2000/svg"><g clip-path="url(#a)"><path d="M248.721 137.801c-2.019-5.179-3.526-10.677-5.171-16.483-1.111-3.915-2.899-8.292-6.772-9.523-3.773-1.199-7.833 1.286-10.149 4.492-2.321 3.205-3.487 7.087-5.473 10.512-3.598 6.202-9.962 8.803-15.226 3.349-7.52-7.791-10.903-18.408-15.672-27.909-3.46-6.895-6.359-14.972-10.721-21.328-6.651-9.693-15.771-17.957-27.895-17.957-7.685 1.166-14.456 7.967-19.044 16.473-4.582 8.506-7.256 18.617-9.533 28.706-4.142 18.347-7.179 37.118-10.21 55.867l152.99-1.781c-.611.005-4.357-5.004-5.077-5.696-5.875-5.686-9.401-11.932-12.047-18.722Z" fill="#DCE6EF"/><path d="M219.682 146.543c-.303 5.944-6.772 16.336-12.718 16.039-5.947-.297-9.121-11.178-8.818-17.122.303-5.943 6.634-35.689 12.58-35.392 5.947.297 9.258 30.532 8.956 36.475Z" fill="#6AA5FE"/><path d="m210.44 113.934-2.997 48.169" stroke="#1A55B5" stroke-width=".868" stroke-miterlimit="10" stroke-linecap="round" stroke-linejoin="round"/><path d="M206.073 145.306c-1.353 2.975-2.388 6.092-3.009 9.347-.314 1.65-.517 3.436.231 4.937.814 1.644 2.624 2.601 4.434 2.898 4.422.726 8.839-1.979 11.43-5.636 2.591-3.65 3.713-8.115 4.742-12.475.809-3.431 1.606-6.911 3.135-10.111.655-1.369 4.495-6.664 2.679-8.033-2.48-1.952-9.67.17-14.274 5.196-3.79 4.134-7.052 8.791-9.368 13.877Z" fill="#FFC957"/><path d="M207.729 162.483s5.335-20.767 18.224-32.676" stroke="#6AA5FE" stroke-width=".868" stroke-miterlimit="10" stroke-linecap="round" stroke-linejoin="round"/><path d="M237.334 140.407c-.457.819-1.315 1.375-2.09 1.815-.958.538-1.981 1.011-2.965 1.473-1.266.588-2.575 1.199-3.785 1.957a12.75 12.75 0 0 0-2.321 1.848c1.039-2.359 2.25-4.415 3.68-6.257 1.881-2.419 3.812-3.645 5.743-3.645h.132c.594.016 1.061.165 1.38.44.655.56.627 1.643.226 2.369ZM239.49 153.834c-.764.544-1.776.682-2.668.748-1.094.076-2.222.071-3.311.06-1.397-.011-2.844-.022-4.258.148a12.582 12.582 0 0 0-2.888.677c1.948-1.688 3.928-3.03 6.007-4.08 2.74-1.385 5.006-1.666 6.75-.841.038.016.082.038.121.06.533.27.891.605 1.061.99.347.786-.143 1.759-.814 2.238Z" fill="#1A55B5"/><path d="M234.402 160.443c-.633-.088-1.205-.495-1.678-.88-.583-.473-1.138-1.006-1.677-1.518-.694-.659-1.403-1.341-2.19-1.918a8.794 8.794 0 0 0-1.755-1.018c1.761.072 3.372.336 4.902.787 2.007.593 3.273 1.517 3.751 2.743.011.028.022.055.033.088.138.385.16.715.066.99-.198.55-.891.803-1.452.726Z" fill="#1A55B5"/><path d="M219.929 162.598s.061-12.706 15.584-23.494" stroke="#2A294F" stroke-width=".78" stroke-miterlimit="10" stroke-linecap="round" stroke-linejoin="round"/><path d="M219.929 162.598s4.77-10.21 17.691-10.21" stroke="#2A294F" stroke-width=".78" stroke-miterlimit="10" stroke-linecap="round" stroke-linejoin="round"/><path d="M226.965 155.23s2.503-.181 7.729 3.756" stroke="#2A294F" stroke-width=".78" stroke-miterlimit="10" stroke-linecap="round" stroke-linejoin="round"/><path d="M86.528 162.708c-3.586-13.559-7.195-27.123-11.414-40.252-2.376-7.406-5.006-14.779-8.653-20.701-3.647-5.921-8.477-10.293-13.328-10.265-7.47 1.446-12.295 8.819-15.458 16.989-2.073 5.356-3.08 11.843-4.543 17.507-2.02 7.796-3.08 16.28-6.959 23.097-2.717 4.778-6.892 3.558-9.709-.731-1.551-2.37-2.651-5.185-4.39-7.345-1.738-2.161-4.483-3.569-6.689-2.205-2.272 1.402-2.948 4.943-3.256 8.055-.451 4.613-.853 8.973-1.595 13.157a61.73 61.73 0 0 1-.54 2.705h86.534v-.011Z" fill="#DCE6EF"/><path d="M54.442 143.992c-2.245-2.584-5.083-4.816-5.974-8.077-.655-2.38-.138-4.904.115-7.362.253-2.457.165-5.174-1.424-7.065-1.31-1.561-3.383-2.238-5.375-2.667-1.99-.428-4.07-.698-5.836-1.71-2.871-1.643-2.3-4.442-3.84-6.894-1.727-2.755-5.753-6.268-9.197-4.437-3.653 1.935-3.075 7.818-.644 10.413 1.612 1.721 3.675 3.376 3.912 5.718.357 3.53-3.692 6.714-2.58 10.084.825 2.491 3.96 3.343 5.511 5.46 1.535 2.095 1.227 5.025.32 7.455-.903 2.431-2.327 4.679-2.889 7.214-1.15 5.179 2.916 8.764 7.553 9.919 4.258 1.061 13.444.561 13.444.561 3.279-1.144 6.915-4.025 8.714-7.17 1.364-2.375 1.55-5.388.495-7.918-.54-1.303-1.37-2.441-2.305-3.524Z" fill="#FFC957"/><path d="M26.987 111.366s15.683 24.214 17.388 51.1" stroke="#6AA5FE" stroke-miterlimit="10" stroke-linecap="round" stroke-linejoin="round"/><path d="M13.02 144.025c.243-.209.595-.319 1.046-.33h.099c1.457 0 2.92.93 4.34 2.76 1.084 1.391 1.997 2.947 2.783 4.729a9.607 9.607 0 0 0-1.755-1.397c-.913-.572-1.903-1.033-2.86-1.479-.748-.346-1.518-.703-2.244-1.116-.589-.33-1.238-.753-1.579-1.369-.308-.55-.325-1.369.17-1.798ZM10.606 154.279c.132-.291.401-.544.803-.748.027-.016.06-.027.088-.043 1.32-.627 3.036-.413 5.105.637 1.573.798 3.069 1.809 4.538 3.085a9.54 9.54 0 0 0-2.184-.512c-1.073-.126-2.167-.121-3.224-.115-.825.005-1.672.011-2.502-.049-.672-.05-1.442-.154-2.014-.561-.506-.363-.874-1.094-.61-1.694Z" fill="#6AA5FE"/><path d="M13.967 160.415c-.072-.203-.055-.456.05-.747.005-.022.016-.044.021-.066.363-.93 1.315-1.628 2.839-2.079a15.197 15.197 0 0 1 3.707-.594 6.7 6.7 0 0 0-1.325.77c-.595.44-1.134.957-1.656 1.452-.407.39-.825.791-1.266 1.149-.357.291-.786.599-1.265.665-.429.061-.957-.132-1.105-.55Z" fill="#6AA5FE"/><path d="M26.008 162.598s-.044-9.611-11.783-17.765" stroke="#2A294F" stroke-width=".78" stroke-miterlimit="10" stroke-linecap="round" stroke-linejoin="round"/><path d="M26.008 162.598s-3.603-7.719-13.378-7.719" stroke="#2A294F" stroke-width=".78" stroke-miterlimit="10" stroke-linecap="round" stroke-linejoin="round"/><path d="M20.689 157.028s-1.893-.137-5.842 2.843" stroke="#2A294F" stroke-width=".78" stroke-miterlimit="10" stroke-linecap="round" stroke-linejoin="round"/><path d="M151.95 162.598H48.446a5.197 5.197 0 0 1-5.198-5.196V17.122a5.196 5.196 0 0 1 5.198-5.196H151.95a5.196 5.196 0 0 1 5.198 5.196v140.286a5.195 5.195 0 0 1-5.198 5.19Z" fill="#6AA5FE"/><path d="M43.253 48.632v108.776a5.197 5.197 0 0 0 5.198 5.196h103.504a5.197 5.197 0 0 0 5.199-5.196v-21.471l-113.9-87.305Z" fill="#527EE9"/><path d="M148.407 155.648H51.994a2.124 2.124 0 0 1-2.123-2.122V20.998c0-1.171.951-2.123 2.123-2.123h96.413c1.172 0 2.124.952 2.124 2.123v132.528a2.124 2.124 0 0 1-2.124 2.122Z" fill="#F3F4F6"/><path d="M108.834 9.078c.006-.143.022-.28.022-.43 0-4.777-3.878-8.653-8.658-8.653-4.78 0-8.658 3.876-8.658 8.654 0 .143.016.286.022.429H78.838v13.19h42.72V9.078h-12.724Z" fill="#1A55B5"/><path d="M78.844 9.078v13.19h42.714L78.844 9.078Z" fill="#2C6BC6"/><path d="M102.069 13.136a4.86 4.86 0 1 0-3.743-8.972 4.86 4.86 0 0 0-2.617 6.357 4.864 4.864 0 0 0 6.36 2.615Z" fill="#527EE9"/><path d="M96.765 5.218a4.86 4.86 0 1 0 6.876 6.873l-6.876-6.873Z" fill="#6AA5FE"/><path d="M121.563 22.268h-42.72v.907h42.72v-.907Z" fill="#CDE1F9"/><path d="M161.78 54.421c-.336.258-3.389 2.062-3.389 2.062l-2.167-2.771.644-3.162 4.664.292.814 2.358c.193.556-.154.902-.566 1.221Z" fill="#FE9280"/><path d="m161.527 50.836.704 2.068-2.151.863a1.974 1.974 0 0 1-2.745-2.05l.138-1.14 4.054.26Z" fill="#E86767"/><path d="m160.471 53.602 1.864.27 1.024-1.749a.683.683 0 0 0-.209-.935.684.684 0 0 0-.936.21l-1.743 2.204Z" fill="#FF746F"/><path d="m159.062 61.08-3.845.973-1.375 11.128 4.5.181.72-12.282Z" fill="#fff"/><path d="m209.615 70.113-6.722-.847 1.541-12.211 6.722.846a6.159 6.159 0 0 1 5.341 6.879 6.163 6.163 0 0 1-6.882 5.333Z" fill="#FE9280"/><path opacity=".2" d="m209.967 67.331-6.722-.847-.352 2.782 6.722.847a6.163 6.163 0 0 0 6.898-6.752 6.157 6.157 0 0 1-6.546 3.97Z" fill="#777470"/><path d="m202.074 69.167-71.308-9.193 1.535-12.217 71.313 9.193-1.54 12.217Z" fill="#FFC957"/><path d="m118.059 52.167 12.707 7.807 1.535-12.217-14.242 4.41Z" fill="#FFF4DD"/><path opacity=".2" d="m118.059 52.167 12.707 7.807.374-2.99-13.081-4.817Z" fill="#777470"/><path d="m122.3 50.858-4.241 1.309 3.785 2.326.456-3.635Z" fill="#2A294F"/><path d="m209.521 57.695-5.9-.742-1.539 12.214 5.9.742 1.539-12.214Z" fill="#D3EAF5"/><path d="m209.591 57.175-2.02-.254-1.67 13.262 2.019.254 1.671-13.262Z" fill="#D3EAF5"/><path opacity=".2" d="m205.957 69.656-75.191-9.682.374-2.99 75.197 9.681-.38 2.991Z" fill="#777470"/><path opacity=".05" d="M207.197 60.673 132 50.985l.374-2.985 75.197 9.682-.374 2.991Z" fill="#777470"/><path opacity=".15" d="m208.428 66.381-2.02-.254-.51 4.053 2.019.254.511-4.053Z" fill="#777470"/><path d="m178.679 93.898 1.012-2.6 3.394-.264c.627-.066 1.177.313 1.237.846.055.534-.401 1.023-1.028 1.089l-4.615.93Z" fill="#E86767"/><path d="m176.929 91.308 1.75 2.59 3.328-.67-3.708-5.548-.721.472a2.279 2.279 0 0 0-.649 3.156Z" fill="#FF746F"/><path d="M180.208 49.594c-3.46-5.037-12.168-3.695-11.943 4.376 0 .022 0 .05.006.072-.022 1.022.011 2.067-.253 3.03-.138.489-.369.94-.726 1.264-.352.33-.809.528-1.287.627-.485.11-1.013.132-1.552.242a4.936 4.936 0 0 0-1.551.593c-.963.561-1.749 1.48-2.107 2.563-.687 2.155-.137 4.651 1.486 6.273.407.396.88.737 1.402.979.517.253 1.106.346 1.584.445 1.007.22 2.025.511 3.059.715l.027-.088c-.957-.44-1.897-.902-2.91-1.254-.528-.187-.979-.291-1.391-.544a4.681 4.681 0 0 1-1.106-.896 6.361 6.361 0 0 1-1.37-2.519c-.264-.934-.319-1.94-.055-2.87.259-.923.881-1.726 1.706-2.26.407-.269.869-.461 1.347-.582.484-.121 1.012-.17 1.546-.313.534-.138 1.062-.407 1.452-.825.396-.413.622-.946.732-1.474a6.55 6.55 0 0 0 .126-1.127c.094 1.507-.038 3.035-1.584 3.612-.891.336-1.76.336-2.591.886-.814.544-1.457 1.347-1.771 2.27-.974 2.854 1.557 6.549 4.533 6.868 1.232.132 2.464.428 3.68.648.341.06 5.127 1.04 5.165.93l5.539-16.39-1.193-5.251Z" fill="#1A55B5"/><path d="m179.944 90.137 11.232-7.835-1.567-4.338-11.31 9.71 1.645 2.463Z" fill="#fff"/><path d="M188.173 81.23a2.252 2.252 0 0 0 4.071-1.924 2.252 2.252 0 0 0-4.071 1.924Z" fill="#fff"/><path d="m188.734 82.038 3.202-3.166-9.247-10.397a2.901 2.901 0 0 0-4.368-.336c-1.254 1.237-1.117 4.684.286 5.751l10.127 8.148Z" fill="#fff"/><path d="m173.091 67.671 3.788.32.671-7.926-3.787-.321-.672 7.927Z" fill="#FF746F"/><path d="M155.85 71.499a2.25 2.25 0 0 0-2.096 2.397 2.25 2.25 0 0 0 2.399 2.095 2.248 2.248 0 0 0 2.095-2.398 2.245 2.245 0 0 0-2.398-2.094Z" fill="#fff"/><path d="m154.431 71.828 2.283 4.053 13.944-4.053c1.711-.434 2.635-3.667 1.964-5.294a2.896 2.896 0 0 0-4.153-1.386l-14.038 6.68Z" fill="#fff"/><path d="m175.774 87.46 7.058-17.309a2.45 2.45 0 0 0-2.047-3.024l-10.132-2.298a2.447 2.447 0 0 0-2.778 2.37l-3.466 18.875 11.365 1.386Z" fill="#fff"/><path d="M174.635 50.517c-1.171 1.48-3.273 2.1-3.768 3.459l-.104.627v.087l-.011-.021-.319 1.896a4.416 4.416 0 0 0 8.708 1.468l.363-2.138c-.259-2.167-4.23-2.337-4.869-5.378Z" fill="#FF746F"/><path d="M178.673 57.027a1.026 1.026 0 1 0 2.024.34 1.026 1.026 0 0 0-2.024-.34Z" fill="#FF746F"/><path d="m169.399 86.684 5.077 12.53-4.852 58.54h-3.729l-4.39-58.902 2.899-12.778 4.995.61Z" fill="#1A55B5"/><path d="M169.399 86.685v12.53l22.856 58.539h2.799l-12.228-60.75-7.052-9.544-6.375-.775Z" fill="#527EE9"/><path d="M167.985 160.811h-1.562v-3.057h2.024l-.462 3.057Z" fill="#FF746F"/><path d="m166.373 160.118.913.402.842-.402.765 2.48h-7.047l2.646-1.237 1.881-1.243Z" fill="#2A294F"/><path d="M194.097 160.811h1.557l-.918-3.057h-2.025l1.386 3.057Z" fill="#FF746F"/><path d="m195.709 160.118-.913.402-.847-.402-.759 2.48h7.046l-2.646-1.237-1.881-1.243Z" fill="#2A294F"/><path d="M171.269 74.27a3.194 3.194 0 0 1-3.196 3.194 3.194 3.194 0 1 1 0-6.389 3.194 3.194 0 0 1 3.196 3.195Z" fill="#fff"/><path d="m170.944 64.917.402 6.862 5.935-6.042-6.337-.82Z" fill="#FF746F"/><path d="M183.866 51.05a5.584 5.584 0 0 0-1.816-1.528c-1.116-.588-2.376-.522-3.399-1.402l.798 8.055c1.468-.418 1.38 2.744-.314 1.87 0 0-3.361 1.44-4.637 4.585-.875 2.111-1.023 4.58-.792 5.988.412 2.523 2.552 3.832 4.989 3.09 1.452-.446 2.635-1.54 3.477-2.81 2.942-4.442 4.901-11.744 2.387-16.758a6.872 6.872 0 0 0-.693-1.09Z" fill="#1A55B5"/><path d="m156.824 50.078-.083.511a1.968 1.968 0 0 0 1.623 2.249l.836.132a1.968 1.968 0 0 0 2.25-1.622l.082-.512-4.708-.758Z" fill="#FF746F"/><path d="M172.405 57.456c.213.228 1.808.991 2.039.934.251-.064.418-.327.425-.587.007-.26-.121-.505-.284-.702a1.74 1.74 0 0 0-1.585-.567c-.221.038-.439.127-.578.306-.143.172-.171.45-.017.616Z" fill="#fff"/><path d="M.479 162.598h266.307" stroke="#2A294F" stroke-width=".78" stroke-miterlimit="10" stroke-linecap="round" stroke-linejoin="round"/><circle cx="88.5" cy="84.5" r="3.5" fill="#FF746F"/><circle cx="101.5" cy="84.5" r="3.5" fill="#FF746F"/><circle cx="114.5" cy="84.5" r="3.5" fill="#FF746F"/></g><defs><clipPath id="a"><path fill="#fff" d="M0 0h267v164H0z"/></clipPath></defs></svg>